<svg width="800" height="600" xmlns="http://www.w3.org/2000/svg">

 <g>
  <title>Layer 1</title>
  <path id="svg_8" d="m309.03878,278.85714" opacity="undefined" stroke-linecap="undefined" stroke-linejoin="undefined" stroke="#000" fill="none"/>
  <line stroke-linecap="undefined" stroke-linejoin="undefined" id="svg_13" y2="256.61406" x2="324.33897" y1="257.14316" x1="324.33897" stroke="#000" fill="none"/>
  <path id="svg_14" d="m330.43836,278.80716" opacity="NaN" stroke="#000" fill="none"/>
  <path stroke="#000" id="svg_19" d="m344.40775,440.56245c-15.28445,-8.37778 -13.27914,-13.45095 23.88192,-60.4137c18.76453,-23.71376 34.1172,-43.80506 34.1172,-44.64731c0,-0.84219 -51.81532,-1.53131 -115.14552,-1.53131l-115.14552,0l0,-44.41348l0,-44.41348l116.05811,0c89.48734,0 115.05906,-1.33796 111.69508,-5.8439c-2.39964,-3.21413 -18.76873,-24.54256 -36.37578,-47.39643c-33.1895,-43.08009 -33.17909,-54.63312 0.05128,-58.21415c16.53751,-1.78209 274.00685,135.14379 282.85659,150.42731c-85.76079,54.57051 -188.27399,111.69183 -282.70534,162.05661c-4.97915,0 -13.65865,-2.52456 -19.288,-5.61015l-0.00002,0z" fill="#0000ff"/>
 </g>
</svg>