<svg width="800" height="600" xmlns="http://www.w3.org/2000/svg">
 <g>
  <title>Layer 1</title>
  <path id="svg_8" d="m309.03878,278.85714" opacity="undefined" stroke-linecap="undefined" stroke-linejoin="undefined" stroke="#000" fill="none"/>
  <line stroke-linecap="undefined" stroke-linejoin="undefined" id="svg_13" y2="256.61406" x2="324.33897" y1="257.14316" x1="324.33897" stroke="#000" fill="none"/>
  <path id="svg_14" d="m330.43836,278.80716" opacity="NaN" stroke="#000" fill="none"/>
  <path transform="rotate(180 198.258 156.422)" stroke="#000" id="svg_19" d="m191.10835,177.39159c-1.68496,-1.16621 -1.46389,-1.87242 2.63275,-8.40978c2.0686,-3.30103 3.76109,-6.0978 3.76109,-6.21505c0,-0.11724 -5.71213,-0.21316 -12.69366,-0.21316l-12.69366,0l0,-6.1825l0,-6.1825l12.79426,0c9.8651,0 12.68413,-0.18625 12.31328,-0.81349c-0.26454,-0.44742 -2.06907,-3.4164 -4.01007,-6.59773c-3.65882,-5.99689 -3.65767,-7.6051 0.00565,-8.1036c1.8231,-0.24807 30.20656,18.81245 31.18215,20.93996c-9.45428,7.59639 -20.75535,15.54786 -31.16548,22.5588c-0.5489,0 -1.50573,-0.35143 -2.12631,-0.78095l0,0l0,0z" fill="#0000ff"/>
  <path id="svg_1" d="m504.47,320.23471l0.56913,0l0.17587,-0.38197l0.17587,0.38197l0.56913,0l-0.46044,0.23607l0.17588,0.38197l-0.46044,-0.23607l-0.46044,0.23607l0.17588,-0.38197l-0.46044,-0.23607z" stroke="#000" fill="#fff"/>
 </g>

</svg>